/* XPM */
static char *result[] = {
/* columns rows colors chars-per-pixel */
"64 64 51 1 ",
"  c #1F1C15",
". c #221E17",
"X c #231F18",
"o c #25221A",
"O c #29261E",
"+ c #2C281F",
"@ c #252525",
"# c #2B2720",
"$ c #2E2A22",
"% c #2B2B2B",
"& c #312E25",
"* c #332F28",
"= c #343126",
"- c #363229",
"; c #39362C",
": c #3D3A2E",
"> c #313131",
", c #3B3730",
"< c #3E3B31",
"1 c #3C3C3C",
"2 c #403D2F",
"3 c #413E32",
"4 c #454235",
"5 c #484537",
"6 c #464339",
"7 c #494639",
"8 c #4D4A3C",
"9 c #514E3E",
"0 c #4E4B41",
"q c #514E42",
"w c #555143",
"e c #595545",
"r c #5C5847",
"t c #565349",
"y c #59564A",
"u c #5D5A4C",
"i c #5F5C50",
"p c #615E4D",
"a c #615E52",
"s c #65614E",
"d c #68634F",
"f c #656255",
"g c #696555",
"h c #676458",
"j c #696659",
"k c #6D6A5D",
"l c #716C57",
"z c #6F6C60",
"x c #716E61",
"c c #757264",
"v c #827F70",
/* pixels */
"%@%%>%>>@%%@@%@%>>>%%>%%@@1%%%%@@@>@@%%%>>%%%@@%%%@%%%%>%%%%%%@%",
"30-&-:O#-:;;-:$-&*#--&*6<--*@#oO18:--#*--$o@$$%-&;;*##@;;:<<;--*",
"$-X--2::60<:==-<-4=<-$234:3>#&##$-<ww76qw7<,<4-<66wy67,0fuku87qq",
";oo::4457077:;462722<-68<-<-&<;<+#<8ww8qww6--,#;66iiy67tafay6676",
"$oo::6447t8<:64:44;63$,0<$---<8<@$47qw070y3;;;$;660iu66iyhi66<<<",
"#@O-=<;:784:<77424:66$,<,-=&;;6<O$38q66,6y7<*-,03<<a000ii0<0q636",
"&$O&:6;6<;;:-:44;,:<,$,-31-=;48q&#-t86;<306<14%066;t07tzyy3t0q08",
"<-+:<6-:<;-;:4<::-;;<-3-3<;--24q-$<6ww217686,-,i<66t000hi060tywt",
"<&$<<:4::<,<2<;;-$-<6;6;63::<338:*4ww760w077<<0z677ji600066i00qy",
"2&$7463=&-;;,;-<;$;3630<08373866&#<00wwuww6,<30iwittt3tu0606700q",
"$,o$O&#XooooooOO#.o#O#$&&$o**-&o$,$466667:,-%;177t6;6,60<<3,,3:,",
"66,,;<;$&;-o#*,;&&$&--,3#&,;*<,*16-,<;--:1,,$$3,*3,,6,w6**-<,;,<",
"##o&O$oo.X. .o,$$&--*&,##--;,*;*$--=-=#;<<:--o06@$O$OO$-$oO+#+$O",
"-<;263<:-==$;$o$,<436631*4443;80<6i80wwuk8774:6,<644;,0u8434<38:",
"&:=<2<<<;-*=-#.#3334qq333;3-3,3q4wu4888uu6:64<<-<94<<;wp874-;<6:",
"<-=<:<443;;<;#.*7738tyw33<3<,*067yt;467w0q746<<$306:6:6843::;:3:",
"<-&<::83<-$:-&o-7w47ufj8;333,,03wq0;<78y678<64-=70434664;<-;=-::",
"4<:<:46:-;-:-&.$477wtukf3,&;,3q7uq4;;<3u0674,7;+<86q48873<::--3;",
"<&<3748-&-*-&-#&7848q77u36-2;7qq16;;,66yu47468<&:768976333<-::34",
";:4876<:3;$;:;@=0t64<0uf3337,0hqw84-<<0hw69867:=:887a34344-;647:",
":-2347:=<--:;;$%38074777,;3833t874:=;<wjw0w785;$-4748;43:4==2;44",
"$OO&=&&o##O&&*10;-<;-$--$#**-,-&=$#$#$47-3;,4=2:$&=;&+--=-+&=$+&",
"O;1-;;-=&*&*;:,3&*-*-$%;*%-,*-*@$,;#O$,<$:#-:===$$O&&$&&--&&==++",
"OO6iiiaiatqtqqtii0twtuayuyyt3600<6-=-<<,,-:4544;;-;:::<345:24-=;",
"&.3hzazhtt0000yijattjzjay0w00tt003O4<:<:==45944=424955589r88822-",
"<O<afhffi0000t00iq60jhjhit00aaaat1O:-44:44:595&445489944859754-4",
"3#6uyiiyt01t0q0itqitafjq6016tayy7,O4<80;=::299:54544842445595;;5",
";o3fytyyy0y0tttttihijzz03,30tuua0:O64u9:42==59554:44=24972444424",
"-X3huyytiaaiwiau0hcccchq0,3t03ttq<o54883:42=:895::24==5995554544",
":X4fqt0tfcyw1t0w7hvcccufht30330aw:o5743<25=&:595:==:=+2584284255",
"2o4i006wii0ww618qichfyqjji00133qq<O58442554=445924422==455:88488",
"=O<qwy0tiqqiw047qwiiftfcaq6q3>,3i6+;:;:=25==4224:=4==+==4:=:4=4;",
"o222222232832==2249985492==42+=:<6;oOO&-+&&+=&-=+$&&+o++OO+++$&O",
"$&$&&++=2&22=+&=&392====+++++.++$*&#$-;:&4;::;-:&:3-++==$&+&=-;=",
"82222252335522522+4=555244::5595,&<<898q559999422$o+++==-;=;2455",
"38992392295933324&44545545489995<;:449ee99999924;+oO&&=;:=::2226",
"223859959e9322524&55rr5599599r554294899e9958945;;*oo+;;;&+;;:4;:",
"22333992399922255o34r9599559ddr58494999989954485:&.OO+=;=+:;:::-",
"22999292352233592O3299595855rrrr555444544447474:2&XO=$==2==42;24",
"22883=22932259595&2;59555455999942;=;;744:4495;::=o&;===:;224::2",
"82222222252&23232O-355334=4985555;===;5242;477=-;=O=4==+==54:=45",
"22+22222532252222.$299954:=52595444=44425:958824=+o=;;;=:;444449",
"+++$&&$O&&=&2&&&O+&+;232=&+&=:2=2;==-;:=:=;:;4;=+=$++++++o+++===",
"$O$22+2&+oOX.oO+&;;OXO$.o+.o+++&=O+ooooooOoo+$oOo;4+++OOo&+++++=",
"32332333222-;==-=22222-==::244422=;;:;&=;2==4:4;&4:;95222==44444",
"32e93de99p955232253733334555954=&:27w9275459s98849989r955=:499r4",
"33r39dreppp92232-23328788999985=$343e847444599459549999555999994",
"33p32939ppw33235227322934499s88:+2948899542998:98884595554999r94",
"323233epp993899e5844858544899r9==;4;59ree9476:9s9995774::55599p4",
"2*3333e9e332389e854598545899r984&244559dpr9944es9999994849245p9;",
"2&3q9ee3382229339848995445559992o:599759s995978r9r99999w9gp499p4",
"2&ee33eq93239e329544rs5544595544o;549989d988979u855988459dl99992",
"#2t333t33323993267849p74:59955:=O4487689r485ereu5:59e93349dpr994",
"2#&$X2&&2O2O&&&&$$+==;=+++&===++;+&=$$&;&&&=;4;4;&+;;-*==-;2==:+",
"332*#2**&&22=&&+O-$=;4,-:+=:&&+;42&&$:::==+=<472:-=:;:43;2222222",
"33332&0&222+222=44::4-<=44::4::44:&&==#47::4w7w454;4;=2:;3525542",
"ta063$3,3qt2330389988;$8sr999559r5244=+9u9wtuusw96373;;7969qqqtq",
"ay030$,23ep33qe379e7q<=8r95985459845:=&97w8rew8tuq88<*-6py8qqq8q",
"ta733**2reew333388889;$8r995955585544==86<wrw78fptq39--36,8thq8u",
"qw730-33pat3et308w55u:=8r998945:5444:++5::8wwuupype89**7q80tqqq6",
"tkp00203wrpwpu3245799:;59844554499895&=8688tq7euew9e8::88auuupt7",
"taw03O3330puew3375699:&9955554;499485=&46r9w378uuqq8q::qythkjqqu",
"yyw3020ww3wrrpfp9w599:+d99595=;59r854:&8tt633wwwq7w792*9tjataptq",
"qappy2y3wwtlpflp99598:;959554:=45954:=+2q44<<wew77q77&&7tx8qfjaq"
};
